<?xml version="1.0" encoding="utf-8"?>
<!-- Generator: Adobe Illustrator 16.0.0, SVG Export Plug-In . SVG Version: 6.00 Build 0)  -->
<!DOCTYPE svg PUBLIC "-//W3C//DTD SVG 1.1//EN" "http://www.w3.org/Graphics/SVG/1.1/DTD/svg11.dtd">
<svg version="1.1" id="Layer_1" xmlns="http://www.w3.org/2000/svg" xmlns:xlink="http://www.w3.org/1999/xlink" x="0px" y="0px"
	 width="335px" height="35.043px" viewBox="0 0 335 35.043" enable-background="new 0 0 335 35.043" xml:space="preserve">
<g opacity="0.6">
	<path d="M79.264,13.622h2.946c0.747,0.008,1.308,0.203,1.684,0.582c0.379,0.385,0.569,0.892,0.569,1.522
		c0.007,0.323-0.068,0.633-0.226,0.927c-0.079,0.141-0.195,0.271-0.343,0.397c-0.148,0.133-0.333,0.254-0.554,0.361v0.021
		c0.417,0.111,0.729,0.335,0.943,0.673c0.198,0.35,0.295,0.727,0.295,1.135c-0.005,0.679-0.211,1.216-0.613,1.609
		c-0.401,0.415-0.899,0.617-1.498,0.617h-3.203V13.622z M80.414,14.678v2.255h1.665c0.421,0,0.731-0.113,0.929-0.34
		c0.202-0.21,0.302-0.474,0.302-0.79c0-0.319-0.1-0.586-0.302-0.806c-0.198-0.207-0.508-0.312-0.929-0.319H80.414z M80.414,17.987
		v2.361h1.777c0.429-0.005,0.743-0.125,0.942-0.358c0.198-0.23,0.296-0.503,0.296-0.821c0-0.322-0.099-0.602-0.296-0.831
		c-0.199-0.227-0.513-0.343-0.942-0.351H80.414z"/>
	<path d="M100.729,13.622h2.969c0.634,0,1.15,0.174,1.55,0.518c0.482,0.391,0.732,0.949,0.754,1.674
		c-0.013,1.065-0.502,1.79-1.467,2.174l1.759,3.48h-1.368l-1.572-3.349h-1.474v3.349h-1.151V13.622z M101.88,17.062h1.746
		c0.432-0.007,0.756-0.138,0.972-0.389c0.212-0.232,0.318-0.521,0.318-0.864c-0.005-0.409-0.132-0.706-0.38-0.891
		c-0.195-0.161-0.478-0.241-0.848-0.241h-1.808V17.062z"/>
	<path d="M110.603,13.622h1.151v6.727h3.705v1.119h-4.856V13.622z"/>
	<path d="M119.886,13.622h1.151v7.846h-1.151V13.622z"/>
	<path d="M125.882,13.622h1.082l2.182,5.116l2.138-5.116h1.088v7.846h-1.151v-4.892h-0.025l-1.59,3.768h-0.962l-1.591-3.768h-0.019
		v4.892h-1.151V13.622z"/>
	<rect x="90.093" y="13.575" fill-rule="evenodd" clip-rule="evenodd" width="4.839" height="1.181"/>
	<rect x="90.093" y="16.963" fill-rule="evenodd" clip-rule="evenodd" width="4.296" height="1.182"/>
	<rect x="90.093" y="20.286" fill-rule="evenodd" clip-rule="evenodd" width="4.839" height="1.182"/>
	<polygon points="139.854,15.228 141.87,21.468 143.084,21.468 140.322,13.622 139.358,13.622 136.596,21.468 137.816,21.468 	"/>
</g>
<g opacity="0.2">
	<path d="M167.436,18.183c-0.004,0.258-0.023,0.512-0.062,0.759c-0.038,0.251-0.101,0.487-0.193,0.715
		c-0.092,0.227-0.224,0.427-0.401,0.604c-0.203,0.202-0.446,0.356-0.737,0.461c-0.291,0.107-0.61,0.161-0.963,0.161h-2.305V14.16
		h2.305c0.353,0,0.672,0.054,0.963,0.16c0.291,0.107,0.534,0.262,0.737,0.463c0.177,0.177,0.309,0.37,0.401,0.58
		c0.092,0.212,0.156,0.432,0.193,0.662c0.039,0.229,0.058,0.465,0.062,0.709c0.002,0.241,0.005,0.479,0.005,0.711
		C167.44,17.68,167.438,17.925,167.436,18.183z M166.717,16.827c-0.002-0.203-0.017-0.398-0.042-0.584
		c-0.025-0.187-0.068-0.361-0.132-0.525c-0.062-0.163-0.151-0.305-0.264-0.425c-0.177-0.182-0.375-0.31-0.596-0.382
		c-0.219-0.072-0.462-0.108-0.727-0.108h-1.463v5.438h1.463c0.265,0,0.508-0.034,0.727-0.106c0.221-0.072,0.419-0.199,0.596-0.385
		c0.113-0.118,0.201-0.267,0.264-0.448c0.064-0.18,0.107-0.369,0.132-0.576c0.026-0.205,0.041-0.417,0.042-0.637
		c0.003-0.22,0.005-0.434,0.005-0.643C166.723,17.238,166.721,17.033,166.717,16.827z"/>
	<path d="M171.962,20.883V14.16h0.718v6.723H171.962z"/>
	<path d="M181.774,19.425c-0.088,0.274-0.236,0.521-0.443,0.741c-0.227,0.244-0.491,0.434-0.793,0.571
		c-0.303,0.136-0.63,0.201-0.982,0.201c-0.334,0-0.646-0.058-0.94-0.178c-0.292-0.119-0.552-0.294-0.778-0.521
		c-0.158-0.157-0.278-0.32-0.363-0.491c-0.084-0.168-0.148-0.359-0.188-0.57c-0.041-0.212-0.065-0.451-0.071-0.718
		c-0.007-0.267-0.011-0.58-0.011-0.939c0-0.357,0.004-0.671,0.011-0.939c0.005-0.268,0.03-0.506,0.071-0.718
		c0.041-0.211,0.104-0.401,0.188-0.571c0.085-0.17,0.205-0.333,0.363-0.49c0.465-0.466,1.039-0.698,1.718-0.698
		c0.44,0,0.812,0.078,1.114,0.235c0.303,0.157,0.601,0.383,0.896,0.68l-0.481,0.481c-0.119-0.119-0.233-0.225-0.344-0.316
		c-0.111-0.091-0.224-0.17-0.34-0.236c-0.116-0.065-0.244-0.116-0.383-0.15c-0.138-0.035-0.292-0.053-0.462-0.053
		c-0.221,0-0.433,0.042-0.637,0.128c-0.205,0.085-0.379,0.203-0.524,0.354c-0.107,0.106-0.193,0.222-0.255,0.344
		c-0.064,0.123-0.111,0.27-0.142,0.439c-0.032,0.171-0.052,0.376-0.062,0.619c-0.009,0.242-0.015,0.54-0.015,0.892
		c0,0.354,0.005,0.651,0.015,0.894c0.01,0.241,0.03,0.448,0.062,0.623c0.031,0.174,0.078,0.32,0.142,0.444
		c0.062,0.122,0.147,0.237,0.255,0.343c0.146,0.152,0.319,0.269,0.524,0.351c0.204,0.08,0.416,0.121,0.637,0.121
		c0.246,0,0.479-0.048,0.698-0.146c0.221-0.097,0.41-0.24,0.567-0.43c0.139-0.164,0.235-0.344,0.289-0.543
		c0.053-0.198,0.08-0.427,0.08-0.686v-0.499h-1.633v-0.632h2.352v1.067C181.907,18.819,181.862,19.151,181.774,19.425z"/>
	<path d="M186.381,20.883V14.16h0.72v6.723H186.381z"/>
	<path d="M193.851,14.803v6.08h-0.717v-6.08h-1.946V14.16h4.61v0.643H193.851z"/>
	<path d="M203.239,20.883l-0.538-1.52h-2.938l-0.539,1.52h-0.764l2.473-6.723h0.604l2.465,6.723H203.239z M201.245,15.19
		l-1.265,3.55h2.514L201.245,15.19z"/>
	<path d="M207.92,20.883V14.16h0.718v6.08h3.438v0.643H207.92z"/>
	<path d="M226.533,20.883V14.16h0.719v6.08h3.436v0.643H226.533z"/>
	<path d="M238.696,20.883l-0.538-1.52h-2.938l-0.538,1.52h-0.763l2.472-6.723h0.605l2.464,6.723H238.696z M236.703,15.19
		l-1.266,3.55h2.514L236.703,15.19z"/>
	<path d="M247.85,19.825c-0.097,0.234-0.235,0.428-0.41,0.585c-0.176,0.158-0.387,0.278-0.633,0.354
		c-0.245,0.079-0.516,0.118-0.812,0.118h-2.615V14.16h2.529c0.288,0,0.558,0.041,0.803,0.123c0.244,0.082,0.454,0.199,0.628,0.353
		c0.173,0.155,0.308,0.343,0.407,0.563c0.096,0.22,0.146,0.472,0.146,0.754c0,0.36-0.096,0.668-0.283,0.927
		c-0.188,0.259-0.426,0.44-0.709,0.547c0.321,0.12,0.584,0.315,0.787,0.586c0.207,0.27,0.309,0.607,0.309,1.01
		C247.997,19.325,247.95,19.593,247.85,19.825z M247.071,15.443c-0.07-0.144-0.163-0.264-0.277-0.357
		c-0.116-0.095-0.256-0.166-0.416-0.213c-0.161-0.047-0.335-0.07-0.524-0.07h-1.756v2.332h1.756c0.189,0,0.363-0.023,0.524-0.071
		c0.16-0.047,0.3-0.118,0.416-0.212c0.114-0.095,0.207-0.216,0.277-0.363c0.068-0.147,0.105-0.322,0.105-0.525
		C247.176,15.763,247.139,15.59,247.071,15.443z M246.917,18.107c-0.244-0.22-0.573-0.331-0.987-0.331h-1.832v2.464h1.832
		c0.414,0,0.743-0.109,0.987-0.334c0.241-0.225,0.361-0.524,0.361-0.902S247.158,18.327,246.917,18.107z"/>
</g>
<line opacity="0.2" fill="none" stroke="#000000" stroke-width="0.5" stroke-miterlimit="10" x1="155.565" y1="9.102" x2="149.898" y2="25.941"/>
</svg>
