<?xml version="1.0" encoding="utf-8"?>
<!-- Generator: Adobe Illustrator 16.0.0, SVG Export Plug-In . SVG Version: 6.00 Build 0)  -->
<!DOCTYPE svg PUBLIC "-//W3C//DTD SVG 1.1//EN" "http://www.w3.org/Graphics/SVG/1.1/DTD/svg11.dtd">
<svg version="1.1" id="Layer_1" xmlns="http://www.w3.org/2000/svg" xmlns:xlink="http://www.w3.org/1999/xlink" x="0px" y="0px"
	 width="64px" height="64px" viewBox="0 0 64 64" enable-background="new 0 0 64 64" xml:space="preserve">
<path display="none" fill-rule="evenodd" clip-rule="evenodd" fill="#30D8D8" d="M58,15.717v32.566c3.445,0.893,6,3.994,6,7.717
	c0,4.418-3.582,8-8,8c-3.723,0-6.824-2.555-7.717-6H15.717c-0.893,3.446-3.994,6-7.717,6c-4.418,0-8-3.582-8-8
	c0-3.723,2.555-6.824,6-7.717V15.717C2.555,14.826,0,11.725,0,8c0-4.418,3.582-8,8-8c3.723,0,6.824,2.557,7.717,6h32.566
	C49.176,2.557,52.277,0,56,0c4.418,0,8,3.582,8,8C64,11.725,61.445,14.826,58,15.717z M56,60c2.209,0,4-1.791,4-4
	c0-2.209-1.791-4-4-4s-4,1.791-4,4C52,58.209,53.791,60,56,60z M4,56c0,2.209,1.791,4,4,4s4-1.791,4-4c0-2.209-1.791-4-4-4
	S4,53.791,4,56z M8,4C5.791,4,4,5.791,4,8s1.791,4,4,4s4-1.791,4-4S10.209,4,8,4z M48.283,10H15.717
	c-0.727,2.803-2.916,4.992-5.717,5.717v32.566c2.801,0.727,4.99,2.916,5.717,5.717h32.566c0.725-2.801,2.916-4.99,5.717-5.717
	V15.717C51.199,14.992,49.008,12.803,48.283,10z M56,4c-2.209,0-4,1.791-4,4s1.791,4,4,4s4-1.791,4-4S58.209,4,56,4z"/>
<g display="none">
	<g display="inline">
		<path fill-rule="evenodd" clip-rule="evenodd" fill="#30D8D8" d="M48,0H16c-3.313,0-6,2.688-6,6v52c0,3.315,2.687,6,6,6h32
			c3.312,0,6-2.686,6-6V6C54,2.688,51.312,0,48,0z M50,56c0,2.209-1.791,4-4,4H18c-2.209,0-4-1.791-4-4V8c0-2.209,1.791-4,4-4h28
			c2.209,0,4,1.791,4,4V56z M32,48c-2.209,0-4,1.791-4,4s1.791,4,4,4s4-1.791,4-4S34.209,48,32,48z M36,8h-8c-1.104,0-2,0.896-2,2
			c0,1.105,0.896,2,2,2h8c1.105,0,2-0.895,2-2C38,8.896,37.105,8,36,8z"/>
	</g>
</g>
<g>
	<g>
		<path fill-rule="evenodd" clip-rule="evenodd" fill="#30D8D8" d="M58,0H6C2.687,0,0,2.688,0,6v40c0,3.314,2.687,6,6,6h16v8h-2
			c-1.104,0-2,0.895-2,2s0.896,2,2,2h24c1.105,0,2-0.895,2-2s-0.895-2-2-2h-2v-8h16c3.312,0,6-2.686,6-6V6C64,2.688,61.312,0,58,0z
			 M38,60H26v-8h12V60z M60,44c0,2.209-1.791,4-4,4H8c-2.209,0-4-1.791-4-4v-2h56V44z M60,38H4V8c0-2.209,1.791-4,4-4h48
			c2.209,0,4,1.791,4,4V38z"/>
	</g>
</g>
</svg>
